<?xml version="1.0" encoding="UTF-8"?>
<!DOCTYPE svg PUBLIC "-//W3C//DTD SVG 1.1//EN" "http://www.w3.org/Graphics/SVG/1.1/DTD/svg11.dtd">
<!-- Creator: CorelDRAW -->
<svg xmlns="http://www.w3.org/2000/svg" xml:space="preserve" width="400px" height="349px" version="1.1" shape-rendering="geometricPrecision" text-rendering="geometricPrecision" image-rendering="optimizeQuality" fill-rule="evenodd" clip-rule="evenodd"
viewBox="0 0 399.37 348.83"
 xmlns:xlink="http://www.w3.org/1999/xlink"
 xmlns:xodm="http://www.corel.com/coreldraw/odm/2003">
 <g id="Слой_x0020_1">
  <metadata id="CorelCorpID_0Corel-Layer"/>
  <polygon fill="yellow" points="199.69,13.47 292.61,174.42 385.52,335.36 199.69,335.36 13.85,335.36 106.77,174.42 "/>
  <path fill="black" fill-rule="nonzero" d="M209.29 5.61l94.27 163.29c0.12,0.2 0.23,0.41 0.33,0.61l94.02 162.85c3.02,5.25 1.21,11.95 -4.04,14.97 -1.72,0.99 -3.6,1.46 -5.46,1.46l0 0.04 -377.4 0c-6.08,0 -11.01,-4.93 -11.01,-11.01 0,-2.37 0.75,-4.57 2.03,-6.37l93.84 -162.54 -0.01 -0.01 94.35 -163.42c3.04,-5.25 9.75,-7.04 15,-4 1.77,1.03 3.15,2.47 4.08,4.13zm17.47 216.44l82.15 0 -24 -41.58c-0.12,-0.18 -0.24,-0.37 -0.35,-0.56l-84.85 -146.96 -84.85 146.96 -0.02 -0.01 -84.82 146.92 339.38 0 -55.4 -95.96 -87.24 0c-0.18,1.12 -0.43,2.22 -0.74,3.29l31.27 14.82 -3.75 7.95 -31.28 -14.83c-0.12,0.17 -0.24,0.34 -0.37,0.51l38.32 38.32 -6.23 6.22 -38.31 -38.31c-0.33,0.23 -0.66,0.46 -1,0.68l14.17 31.59 -8.02 3.58 -14.15 -31.57c-0.9,0.24 -1.82,0.43 -2.75,0.58l0 57.48 -8.8 0 0 -57.48c-0.76,-0.12 -1.5,-0.27 -2.24,-0.45l-13.56 31.84 -8.08 -3.44 13.56 -31.85c-0.48,-0.3 -0.96,-0.63 -1.43,-0.96l-38.31 38.31 -6.23 -6.22 38.32 -38.32c-0.26,-0.35 -0.51,-0.71 -0.74,-1.08l-31.64 14.06 -3.54 -8.01 31.61 -14.05c-0.23,-0.87 -0.41,-1.76 -0.56,-2.66l-54.18 0 0 -8.81 54.18 0c0.1,-0.62 0.22,-1.24 0.36,-1.85l-32.02 -13.1 3.3 -8.12 32.04 13.1c0.37,-0.6 0.77,-1.2 1.19,-1.77l-38.32 -38.32 6.23 -6.22 38.31 38.31c0.58,-0.41 1.17,-0.81 1.77,-1.18l-13.11 -32.04 8.12 -3.3 13.1 32.02c0.62,-0.15 1.24,-0.27 1.87,-0.37l0 -54.18 8.8 0 0 54.18c0.77,0.13 1.53,0.28 2.28,0.47l13.61 -31.81 8.08 3.44 -13.61 31.83c0.47,0.3 0.93,0.61 1.39,0.94l38.31 -38.31 6.23 6.22 -38.32 38.32c0.57,0.77 1.09,1.58 1.57,2.41l32.38 -12.22 3.1 8.22 -32.38 12.22c0.08,0.37 0.14,0.74 0.2,1.11z"/>
 </g>
</svg>
